<svg xmlns="http://www.w3.org/2000/svg" version="1.1" xmlns:xlink="http://www.w3.org/1999/xlink" width="512" height="512" x="0" y="0" viewBox="0 0 512 512" style="enable-background:new 0 0 512 512" xml:space="preserve" class=""><g><path fill="#b96d58" d="M512 256c0 3-.05 6-.16 8.95 0 1.18-.09 2.36-.15 3.53q-.37 7.92-1.23 15.7a256.33 256.33 0 0 1-164.69 211.64q-8.28 3.1-16.83 5.64A256 256 0 0 1 256 512C114.62 512 0 397.38 0 256S114.62 0 256 0c131.85 0 240.43 99.69 254.46 227.81A257.33 257.33 0 0 1 512 256z" opacity="1" data-original="#ff5722" class=""></path><path fill="#a16757" d="M511.69 268.48q-.37 7.92-1.23 15.7a256.33 256.33 0 0 1-164.69 211.64L201.57 389 181 243.5l63-92 96-12z" opacity="1" data-original="#d84315" class=""></path><path fill="#fafafa" d="M369 305.61q-4.31 45.51-33.6 71t-77.93 25.48q-34 0-59.86-16.11t-39.94-45.8Q143.6 310.5 143 271.23v-26.56q0-40.23 14.26-70.9t40.92-47.26q26.66-16.61 61.62-16.6 47.07 0 75.78 25.48T369 207.56h-49.23q-3.51-30.66-17.87-44.24t-42.09-13.57q-32.24 0-49.51 23.56t-17.68 69.1v25.22q0 46.14 16.51 70.38t48.33 24.24q29.12 0 43.75-13.09t18.56-43.55z" opacity="1" data-original="#fafafa" class=""></path></g></svg>